<?xml version="1.0" encoding="UTF-8" standalone="no"?>
<!DOCTYPE svg PUBLIC "-//W3C//DTD SVG 1.1//EN" "http://www.w3.org/Graphics/SVG/1.1/DTD/svg11.dtd">
<!-- Created with Vectornator (http://vectornator.io/) -->
<svg height="1000.0pt" stroke-miterlimit="10" style="fill-rule:nonzero;clip-rule:evenodd;stroke-linecap:round;stroke-linejoin:round;" version="1.1" viewBox="0 0 1000 1000" width="1000.0pt" xml:space="preserve" xmlns="http://www.w3.org/2000/svg" xmlns:xlink="http://www.w3.org/1999/xlink">
<defs/>
<g id="Layer-1">
<g opacity="1">
<path d="M250 217.282L750 217.282L750 563.74C750 669.807 638.491 783.214 500 783.214C368.834 783.214 250 667.832 250 563.74C250 468.121 250 217.282 250 217.282Z" fill="#ed1c24" fill-rule="evenodd" opacity="1" stroke="none"/>
<path d="M255.658 603.17C276.48 575.44 290.919 600.907 306.771 560.256C316.578 535.111 310.746 508.722 368.194 493.864C433.125 477.07 385.041 419.52 466.341 399.691C528.672 384.49 478.127 316.851 569.361 302.587C619.9 294.685 589.608 234.769 648.489 216.786L749.569 217.165L749.569 300.26C669.507 306.707 703.139 381.9 640.722 390.796C559.874 402.319 611.998 472.047 528.758 487.9C466.515 499.755 505.949 561.25 441.544 578.096C375.217 595.446 395.706 619.681 375.151 649.459C355.324 678.182 324.091 667.149 307.764 693.355C287.627 674.092 262.863 635.297 255.658 603.17Z" fill="#fdb924" fill-rule="nonzero" opacity="1" stroke="none"/>
<path d="M632.001 595.696C631.586 604.243 609.998 609.563 612.169 610.556C623.994 615.961 631.426 620.224 631.426 620.224C646.161 614.611 652.076 602.618 650.89 590.754C649.538 577.241 636.352 569.766 623.656 574.33C620.859 575.336 616.255 578.801 616.899 582.984C617.574 587.376 625.344 581.632 625.344 583.659C625.344 586.084 622.979 582.984 620.38 587.396C618.404 590.753 624.116 594.452 629.027 590.489C630.599 591.337 632.138 592.871 632.001 595.696Z" fill="#fdb924" fill-rule="evenodd" opacity="1" stroke="none"/>
<path d="M632.001 595.696C631.586 604.243 609.998 609.563 612.169 610.556C623.994 615.961 631.426 620.224 631.426 620.224C646.161 614.611 652.076 602.618 650.89 590.754C649.538 577.241 636.352 569.766 623.656 574.33C620.859 575.336 616.255 578.801 616.899 582.984C617.574 587.376 625.344 581.632 625.344 583.659C625.344 586.084 622.979 582.984 620.38 587.396C618.404 590.753 624.116 594.452 629.027 590.489C630.599 591.337 632.138 592.871 632.001 595.696Z" fill="none" opacity="1" stroke="#ed1c24" stroke-linecap="butt" stroke-linejoin="miter" stroke-width="1"/>
<path d="M591.354 714.971C591.502 715.04 591.692 724.43 591.692 724.43C578.166 726.09 584.782 736.526 574.821 735.865C564.615 733.128 571.169 716.132 581.519 711.849C586.873 713.99 587.007 712.927 591.354 714.971Z" fill="#fdb924" fill-rule="evenodd" opacity="1" stroke="none"/>
<path d="M591.354 714.971C591.502 715.04 591.692 724.43 591.692 724.43C578.166 726.09 584.782 736.526 574.821 735.865C564.615 733.128 571.169 716.132 581.519 711.849C586.873 713.99 587.007 712.927 591.354 714.971Z" fill="none" opacity="1" stroke="#ed1c24" stroke-linecap="butt" stroke-linejoin="miter" stroke-width="1"/>
<path d="M569.005 507.729C569.005 507.729 572.095 518.933 576.925 524.382C580.111 528.881 590.974 535.053 591.086 518.087C584.65 514.55 580.287 507.707 580.287 499.844C580.287 488.356 589.6 479.044 601.087 479.044C612.575 479.044 621.888 488.356 621.888 499.844C621.888 507.518 617.733 514.22 611.55 517.826C611.552 535.117 622.51 528.904 625.713 524.382C630.542 518.933 633.633 507.729 633.633 507.729C685.758 509.467 689.043 500.581 690.973 504.444C693.678 516.848 661.104 521.678 665.394 523.223C675.439 527.666 689.043 520.712 688.27 524.768C685.758 536.978 659.019 537.365 657.474 539.876C656.702 543.74 676.252 542.774 677.024 545.479C678.957 552.859 644.877 553.632 642.753 553.246C640.24 556.143 656.121 555.951 655.155 559.428C652.259 565.995 629.962 558.847 628.996 559.621C625.713 562.518 639.468 565.803 635.412 568.934C634.194 570.793 619.232 570.582 610.588 562.071L609.76 735.034C609.76 744.412 592.082 747.732 592.913 735.034L592.261 561.859C583.653 570.577 568.454 570.807 567.225 568.934C563.168 565.803 576.925 562.518 573.64 559.621C572.675 558.847 550.379 565.995 547.481 559.428C546.514 555.951 562.396 556.143 559.884 553.246C557.76 553.632 523.681 552.859 525.611 545.479C526.384 542.774 545.936 543.74 545.163 539.876C543.618 537.365 516.878 536.978 514.367 524.768C513.595 520.712 527.197 527.666 537.243 523.223C541.533 521.678 508.958 516.848 511.662 504.444C513.595 500.581 516.878 509.467 569.005 507.729Z" fill="#fdb924" fill-rule="nonzero" opacity="1" stroke="none"/>
<path d="M612.119 611.316C641.431 616.974 653.931 653.538 620.953 664.011C620.72 664.084 616.077 661.933 611.896 659.982C611.481 660.397 611.833 654.89 611.833 654.89C630.494 647.49 627.034 629.683 600.138 625.291C553.286 617.433 550.073 606.841 550.073 592.781C550.073 582.647 561.137 568.817 576.619 573.992C579.437 574.935 585.628 578.989 584.389 583.322C583.038 588.051 575.268 581.632 574.461 584.076C573.954 585.61 580.808 584.857 582.362 587.038C584.623 590.21 576.518 595.337 570.099 590.27C568.527 591.118 567.097 594.011 568.198 596.615C570.812 602.799 577.21 603.614 594.057 607.516C599.698 608.76 603.479 608.529 612.119 611.316Z" fill="#fdb924" fill-rule="nonzero" opacity="1" stroke="none"/>
<path d="M612.119 611.316C641.431 616.974 653.931 653.538 620.953 664.011C620.72 664.084 616.077 661.933 611.896 659.982C611.481 660.397 611.833 654.89 611.833 654.89C630.494 647.49 627.034 629.683 600.138 625.291C553.286 617.433 550.073 606.841 550.073 592.781C550.073 582.647 561.137 568.817 576.619 573.992C579.437 574.935 585.628 578.989 584.389 583.322C583.038 588.051 575.268 581.632 574.461 584.076C573.954 585.61 580.808 584.857 582.362 587.038C584.623 590.21 576.518 595.337 570.099 590.27C568.527 591.118 567.097 594.011 568.198 596.615C570.812 602.799 577.21 603.614 594.057 607.516C599.698 608.76 603.479 608.529 612.119 611.316Z" fill="none" opacity="1" stroke="#ed1c24" stroke-linecap="butt" stroke-linejoin="miter" stroke-width="1"/>
<path d="M573.917 619.678C574.135 619.567 583.377 622.956 590.679 624.616C591.14 624.253 590.679 630.696 590.679 630.696C584.113 631.977 580.075 637.25 579.66 640.156C578.83 648.041 581.391 651.543 603.019 658.513C641.431 667.259 637.371 685.656 635.688 692.466C633.577 701.013 625.776 706.445 617.645 709.35C615.734 709.247 615.162 707.694 611.539 705.743C611.174 705.547 611.435 701.175 611.435 701.175C611.367 700.592 620.048 694.999 620.048 689.139C620.048 684.277 619.601 678.07 601.125 673.13C546.007 663.336 556.142 628.669 573.917 619.678Z" fill="#fdb924" fill-rule="nonzero" opacity="1" stroke="none"/>
<path d="M573.917 619.678C574.135 619.567 583.377 622.956 590.679 624.616C591.14 624.253 590.679 630.696 590.679 630.696C584.113 631.977 580.075 637.25 579.66 640.156C578.83 648.041 581.391 651.543 603.019 658.513C641.431 667.259 637.371 685.656 635.688 692.466C633.577 701.013 625.776 706.445 617.645 709.35C615.734 709.247 615.162 707.694 611.539 705.743C611.174 705.547 611.435 701.175 611.435 701.175C611.367 700.592 620.048 694.999 620.048 689.139C620.048 684.277 619.601 678.07 601.125 673.13C546.007 663.336 556.142 628.669 573.917 619.678Z" fill="none" opacity="1" stroke="#ed1c24" stroke-linecap="butt" stroke-linejoin="miter" stroke-width="1"/>
<path d="M570.877 703.278C577.476 709.953 588.989 713.283 588.989 713.283C599.404 718.274 600.117 718.274 606.542 721.129C620.142 726.125 617.645 737.228 624.146 735.865C632.031 733.144 628.965 717.133 616.02 710.167C605.988 704.593 601.445 703.546 595.746 700.913C577.296 692.129 576.619 682.486 590.679 672.326C584.422 669.262 580.425 669.231 576.523 666.444C566.051 671.174 556.651 688.884 570.877 703.278Z" fill="#fdb924" fill-rule="evenodd" opacity="1" stroke="none"/>
<path d="M570.877 703.278C577.476 709.953 588.989 713.283 588.989 713.283C599.404 718.274 600.117 718.274 606.542 721.129C620.142 726.125 617.645 737.228 624.146 735.865C632.031 733.144 628.965 717.133 616.02 710.167C605.988 704.593 601.445 703.546 595.746 700.913C577.296 692.129 576.619 682.486 590.679 672.326C584.422 669.262 580.425 669.231 576.523 666.444C566.051 671.174 556.651 688.884 570.877 703.278Z" fill="none" opacity="1" stroke="#ed1c24" stroke-linecap="butt" stroke-linejoin="miter" stroke-width="1"/>
<path d="M389.031 327.317L389.029 466.167L328.149 466.167L328.149 327.317L389.031 327.317Z" fill="#fdb924" fill-rule="nonzero" opacity="1" stroke="none"/>
<path d="M285.024 253.37L408.845 253.37L441.544 281.765L441.544 319.939L389.031 319.939L328.149 319.939L285.024 319.939L285.024 253.37Z" fill="#fdb924" fill-rule="nonzero" opacity="1" stroke="none"/>
</g>
</g>
</svg>
